<svg xmlns="http://www.w3.org/2000/svg" viewBox="0 0 256 256">
  <polygon points="40,10 46,28 66,28 50,40 56,58 40,46 24,58 30,40 14,28 34,28" fill="#ffd700"/>
  <polygon points="128,40 133,55 150,55 136,65 141,80 128,70 115,80 120,65 106,55 123,55" fill="#fff0a0"/>
  <polygon points="216,10 222,28 242,28 226,40 232,58 216,46 200,58 206,40 190,28 210,28" fill="#ffd700"/>
  <polygon points="60,140 65,155 80,155 68,165 72,180 60,170 48,180 52,165 40,155 55,155" fill="#fff0a0"/>
  <polygon points="196,140 201,155 216,155 204,165 208,180 196,170 184,180 188,165 176,155 191,155" fill="#ffd700"/>
</svg>
